{
  "title": "Peaky.Blinders.Season.2.Complete.HDTV.x264-SCENE",
  "uid": 11396790,
  "size": 1891982976,
  "categoryP": "video",
  "categoryS": "tv_shows",
  "magnet": "?xt=urn:btih:9d0abe50406c0f74e703e581cfdf03bf78fb42a4&amp;dn=Peaky.Blinders.Season.2.Complete.HDTV.x264-SCENE&amp;tr=udp%3A%2F%2Ftracker.openbittorrent.com%3A80&amp;tr=udp%3A%2F%2Fopen.demonii.com%3A1337&amp;tr=udp%3A%2F%2Ftracker.coppersurfer.tk%3A6969&amp;tr=udp%3A%2F%2Fexodus.desync.com%3A6969",
  "seeders": 52,
  "leechers": 6,
  "uploader": "th3d4m4g3r",
  "files": -1,
  "time": 1415376362,
  "description": "My connection is slow. Please be patient. Please seed to a least 1.5 ratio so others can enjoy the show too. Thank You.\n\n-------------------------------------------\n\nPeaky.Blinders.Season.2.Complete.HDTV.x264-SCENE\nAired: 2014-10-02 - 2014-11-06\n\n-------------------------------------------\n\nFiles:\n\nPeaky.Blinders.S02E01.HDTV.x264-TLA.mp4\nPeaky_Blinders.2x02.HDTV_x264-FoV.mp4\nPeaky_Blinders.2x03.HDTV_x264-FoV.mp4\nPeaky.Blinders.S02E04.HDTV.x264-RiVER.mp4\nPeaky_Blinders.2x05.HDTV_x264-FoV.mp4\nPeaky.Blinders.S02E06.HDTV.x264-RiVER.mp4\n\n-------------------------------------------\n\nMediaInfo:\n\nGeneral\nComplete name                            : Peaky.Blinders.S02E01.HDTV.x264-TLA.mp4\nFormat                                   : MPEG-4\nFile size                                : 273 MiB\nDuration                                 : 58mn 50s\nOverall bit rate mode                    : Variable\nOverall bit rate                         : 648 Kbps\n\nVideo\nID                                       : 1\nFormat                                   : AVC\nFormat profile                           : &lt;a class=&quot;__cf_email__&quot; href=&quot;/cdn-cgi/l/email-protection&quot; data-cfemail=&quot;3b73525c537b7708150a&quot;&gt;[email&amp;#160;protected]&lt;/a&gt;&lt;script cf-hash='f9e31' type=&quot;text/javascript&quot;&gt;\n/* &lt;![CDATA[ */!function(){try{var t=&quot;currentScript&quot;in document?document.currentScript:function(){for(var t=document.getElementsByTagName(&quot;script&quot;),e=t.length;e--;)if(t[e].getAttribute(&quot;cf-hash&quot;))return t[e]}();if(t&amp;&amp;t.previousSibling){var e,r,n,i,c=t.previousSibling,a=c.getAttribute(&quot;data-cfemail&quot;);if(a){for(e=&quot;&quot;,r=parseInt(a.substr(0,2),16),n=2;a.length-n;n+=2)i=parseInt(a.substr(n,2),16)^r,e+=String.fromCharCode(i);e=document.createTextNode(e),c.parentNode.replaceChild(e,c)}}}catch(u){}}();/* ]]&gt; */&lt;/script&gt;\nFormat settings, CABAC                   : Yes\nFormat settings, ReFrames                : 5 frames\nBit rate                                 : 518 Kbps\nWidth                                    : 720 pixels\nHeight                                   : 352 pixels\nDisplay aspect ratio                     : 2.045\nFrame rate mode                          : Constant\nFrame rate                               : 25.000 fps\nColor space                              : YUV\nChroma subsampling                       : 4:2:0\nBit depth                                : 8 bits\nScan type                                : Progressive\nBits/(Pixel*Frame)                       : 0.082\nStream size                              : 218 MiB (80%)\nWriting library                          : x264 core 142 r2479 dd79a61\nEncoding settings                        : cabac=1 / ref=5 / deblock=1:0:0 / analyse=0x3:0x113 / me=umh / subme=8 / psy=1 / psy_rd=1.00:0.00 / mixed_ref=1 / me_range=16 / chroma_me=1 / trellis=1 / 8x8dct=1 / cqm=0 / deadzone=21,11 / fast_pskip=1 / chroma_qp_offset=-2 / threads=12 / lookahead_threads=2 / sliced_threads=0 / nr=0 / decimate=1 / interlaced=0 / bluray_compat=0 / constrained_intra=0 / bframes=3 / b_pyramid=2 / b_adapt=2 / b_bias=0 / direct=3 / weightb=1 / open_gop=0 / weightp=2 / keyint=250 / keyint_min=25 / scenecut=40 / intra_refresh=0 / rc_lookahead=50 / rc=crf / mbtree=1 / crf=19.0 / qcomp=0.60 / qpmin=0 / qpmax=69 / qpstep=4 / ip_ratio=1.40 / aq=1:1.00\n\nAudio\nFormat                                   : AAC\nFormat profile                           : LC\nBit rate mode                            : Variable\nBit rate                                 : 124 Kbps\nMaximum bit rate                         : 140 Kbps\nChannel(s)                               : 2 channels\nSampling rate                            : 48.0 KHz\nCompression mode                         : Lossy\nStream size                              : 52.1 MiB (19%)",
  "parsed": {
    "xt": "urn:btih:9d0abe50406c0f74e703e581cfdf03bf78fb42a4",
    "dn": "Peaky.Blinders.Season.2.Complete.HDTV.x264-SCENE",
    "tr": [
      "udp://exodus.desync.com:6969",
      "udp://open.demonii.com:1337",
      "udp://tracker.coppersurfer.tk:6969",
      "udp://tracker.openbittorrent.com:80"
    ],
    "infoHash": "9d0abe50406c0f74e703e581cfdf03bf78fb42a4",
    "infoHashBuffer": {
      "type": "Buffer",
      "data": [
        157,
        10,
        190,
        80,
        64,
        108,
        15,
        116,
        231,
        3,
        229,
        129,
        207,
        223,
        3,
        191,
        120,
        251,
        66,
        164
      ]
    },
    "name": "Peaky.Blinders.Season.2.Complete.HDTV.x264-SCENE",
    "announce": [
      "udp://exodus.desync.com:6969",
      "udp://open.demonii.com:1337",
      "udp://tracker.coppersurfer.tk:6969",
      "udp://tracker.openbittorrent.com:80"
    ],
    "urlList": []
  },
  "previous": 141,
  "peers": 52,
  "last_updated": "2016-12-27T08:19:38.582Z"
}